<svg width="30" height="26" viewBox="0 0 30 26" fill="none" xmlns="http://www.w3.org/2000/svg">
<path d="M6.66667 15.2903V12.7419H23.3333V15.2903H6.66667ZM6.66667 20.3871V17.8387H18.3333V20.3871H6.66667ZM3.33333 25.4839C2.41667 25.4839 1.63194 25.2344 0.979167 24.7353C0.326389 24.2362 0 23.6363 0 22.9355V5.09678C0 4.39597 0.326389 3.79604 0.979167 3.29698C1.63194 2.79792 2.41667 2.54839 3.33333 2.54839H5V0H8.33333V2.54839H21.6667V0H25V2.54839H26.6667C27.5833 2.54839 28.3681 2.79792 29.0208 3.29698C29.6736 3.79604 30 4.39597 30 5.09678V22.9355C30 23.6363 29.6736 24.2362 29.0208 24.7353C28.3681 25.2344 27.5833 25.4839 26.6667 25.4839H3.33333ZM3.33333 22.9355H26.6667V10.1936H3.33333V22.9355Z" fill="#E3E3E3"/>
</svg>
