<svg width="40" height="40" viewBox="0 0 40 40" fill="none" xmlns="http://www.w3.org/2000/svg">
<path d="M13.3332 21.6667H26.6665V18.3334H13.3332V21.6667ZM13.3332 26.6667H26.6665V23.3334H13.3332V26.6667ZM13.3332 31.6667H21.6665V28.3334H13.3332V31.6667ZM9.99984 36.6667C9.08317 36.6667 8.29845 36.3403 7.64567 35.6875C6.99289 35.0348 6.6665 34.25 6.6665 33.3334V6.66671C6.6665 5.75004 6.99289 4.96532 7.64567 4.31254C8.29845 3.65976 9.08317 3.33337 9.99984 3.33337H23.3332L33.3332 13.3334V33.3334C33.3332 34.25 33.0068 35.0348 32.354 35.6875C31.7012 36.3403 30.9165 36.6667 29.9998 36.6667H9.99984ZM21.6665 15H29.9998L21.6665 6.66671V15Z" fill="#E3E3E3"/>
</svg>
