<svg width="40" height="40" viewBox="0 0 40 40" fill="none" xmlns="http://www.w3.org/2000/svg">
<path d="M6.66683 36.6667C5.75016 36.6667 4.96544 36.3403 4.31266 35.6875C3.65989 35.0348 3.3335 34.25 3.3335 33.3334V26.6667H6.66683V33.3334H13.3335V36.6667H6.66683ZM3.3335 13.3334V6.66671C3.3335 5.75004 3.65989 4.96532 4.31266 4.31254C4.96544 3.65976 5.75016 3.33337 6.66683 3.33337H13.3335V6.66671H6.66683V13.3334H3.3335ZM18.3335 31.5C15.7779 31.1112 13.5974 30.0139 11.7918 28.2084C9.98627 26.4028 8.88905 24.2223 8.50016 21.6667H11.8335C12.1668 23.3056 12.9238 24.7153 14.1043 25.8959C15.2849 27.0764 16.6946 27.8334 18.3335 28.1667V31.5ZM8.50016 18.3334C8.88905 15.7778 9.98627 13.5903 11.7918 11.7709C13.5974 9.95143 15.7779 8.86115 18.3335 8.50004V11.8334C16.6946 12.1667 15.2849 12.9237 14.1043 14.1042C12.9238 15.2848 12.1668 16.6945 11.8335 18.3334H8.50016ZM20.0002 23.3334C19.0835 23.3334 18.2988 23.007 17.646 22.3542C16.9932 21.7014 16.6668 20.9167 16.6668 20C16.6668 19.0556 16.9932 18.2639 17.646 17.625C18.2988 16.9862 19.0835 16.6667 20.0002 16.6667C20.9446 16.6667 21.7363 16.9862 22.3752 17.625C23.0141 18.2639 23.3335 19.0556 23.3335 20C23.3335 20.9167 23.0141 21.7014 22.3752 22.3542C21.7363 23.007 20.9446 23.3334 20.0002 23.3334ZM21.6668 31.5V28.1667C23.3057 27.8334 24.7154 27.0764 25.896 25.8959C27.0766 24.7153 27.8335 23.3056 28.1668 21.6667H31.5002C31.1391 24.2223 30.0488 26.4028 28.2293 28.2084C26.4099 30.0139 24.2224 31.1112 21.6668 31.5ZM28.1668 18.3334C27.8335 16.6945 27.0766 15.2848 25.896 14.1042C24.7154 12.9237 23.3057 12.1667 21.6668 11.8334V8.50004C24.2224 8.88893 26.4099 9.98615 28.2293 11.7917C30.0488 13.5973 31.1391 15.7778 31.5002 18.3334H28.1668ZM26.6668 36.6667V33.3334H33.3335V26.6667H36.6668V33.3334C36.6668 34.25 36.3404 35.0348 35.6877 35.6875C35.0349 36.3403 34.2502 36.6667 33.3335 36.6667H26.6668ZM33.3335 13.3334V6.66671H26.6668V3.33337H33.3335C34.2502 3.33337 35.0349 3.65976 35.6877 4.31254C36.3404 4.96532 36.6668 5.75004 36.6668 6.66671V13.3334H33.3335Z" fill="#E3E3E3"/>
</svg>
